<svg xmlns="http://www.w3.org/2000/svg" class="hidden lg:block max-w-[820px] lg:max-w-[1920px] h-[564px] lg:h-[564px] absolute top-0 bottom-0 z-0"><g fill="none" fill-rule="evenodd"><path d="M9.025 192.906c8.231-20.834 22.83-35.607 31.65-43.877 17.02-15.96 42.989-27.39 52.863-29.68 9.693-2.25 19.383-4.087 29.002-4.655 57.985-3.441 91.355 28.786 91.246 87.023-.032 13.758-.283 27.57.633 41.274 2.453 36.784 25.843 59.63 54.413 77.83 62.316 39.708 69.682 125.28 14.4 173.71-29.498 25.843-83.234 25.116-119.775-3.657-13.848-10.91-28.492-23.617-36.066-39.46-7.031-14.722-19.934-31.328-36.211-47.973-11.703-11.968-27.697-23.562-35.275-32.338-16.67-19.307-23.612-30.304-34.676-50.282C-8.99 266.25.794 213.74 9.025 192.906Z" fill="#ffc299" fill-rule="nonzero"/><path d="m206.69 1.882-30.14 198.685c-.133.879.725 1.584 1.546 1.269l185.409-71.212c.82-.315.987-1.415.3-1.978L208.535 1.173a1.134 1.134 0 0 0-1.846.709" fill="#ff99a7"/><path d="M1630.117 237.193c13.757 41.208 16.09 82.804-.096 123.753-8.77 22.192-23.039 40.248-42.727 53.393-27.668 18.47-55.973 14.736-84.95 1.73-30.307-13.602-61.209-25.903-92.074-38.212-19.359-7.722-38.862-14.897-53.934-30.179-12.497-12.669-21.25-26.927-21.07-45.637.23-23.754 10.25-37.983 32.977-45.815 11.469-3.953 22.963-7.867 34.265-12.26 16.12-6.268 25.361-18.264 26.423-35.582.646-10.543.552-21.254-.511-31.76-5.078-50.165 43.253-83.613 87.273-76.995 39.676 5.965 65.693 30.651 84.394 63.307 13.352 23.315 21.485 48.662 30.03 74.257" fill="#d3adff"/><path d="M1467.139 475.47c0 46.668-37.811 84.5-84.453 84.5-46.641 0-84.452-37.832-84.452-84.5s37.81-84.5 84.452-84.5c46.642 0 84.453 37.832 84.453 84.5" fill="#ffeb33"/><path d="M437 431.904c14.703 14.046 37.551 14.206 56.411 9.214 3.727-.986 13.496-5.806 11.26-11.73-1.228-3.255-13.297-2.405-19.413-2.042-10.288.61-37.662 8.126-39.653 20.28-3.747 22.877 49.388 25.01 54.168 8.257 1.357-4.756-8.48-4.978-9.853-4.917-9.38.414-15.326.914-23.728 5.213-11.41 5.84-4.061 20.955 4.321 24.399 8.891 3.652 11.609 3.496 19.964 4.393" stroke="#55debf" stroke-width=".609"/></g></svg>