<svg xmlns="http://www.w3.org/2000/svg" class="block lg:hidden max-w-[561px] h-[481px] absolute top-0 bottom-0 z-0 "><g fill="none" fill-rule="evenodd"><path d="M12.212 24.701c11.95-11.63 25.461-10.654 39.946-10.696 9.072-.027 18.721-2.35 27.767-1.619 20.966 1.69 31.31 14.924 28.336 35.796-.704 4.93-1.49 9.869-1.852 14.828-.974 13.31 6.263 22.68 15.59 30.643 20.347 17.376 18.677 48.423-3.587 62.999-11.88 7.777-31.113 4.809-42.767-7.348-4.417-4.608-9.028-9.902-10.945-15.963-4.813-15.228-24.323-37.56-42.668-51.42C16 77.361 11.122 70.733 7.053 64.205-2.084 49.563.365 35.542 12.212 24.7Z" fill="#ffc299" fill-rule="nonzero"/><path d="M554.136 347.318c6.671 19.986 7.815 40.155-.004 60.005-4.236 10.757-11.135 19.507-20.658 25.874-13.383 8.946-27.081 7.126-41.108.81-14.671-6.606-29.629-12.582-44.57-18.56-9.37-3.751-18.81-7.237-26.11-14.652-6.051-6.147-10.293-13.063-10.211-22.136.103-11.517 4.947-18.413 15.942-22.203 5.548-1.912 11.11-3.806 16.577-5.933 7.799-3.033 12.267-8.846 12.774-17.243.31-5.112.26-10.305-.258-15.4-2.474-24.325 20.902-40.526 42.206-37.303 19.203 2.907 31.8 14.885 40.862 30.726 6.47 11.309 10.414 23.602 14.558 36.015" fill="#d3adff"/><path d="M435.942 446.074c0 16.568-13.429 30-29.993 30s-29.993-13.432-29.993-30c0-16.57 13.429-30 29.993-30s29.993 13.43 29.993 30" fill="#ffeb33"/><path d="M100.927 4.051 87.812 90.484a.504.504 0 0 0 .672.552l80.682-30.979a.504.504 0 0 0 .13-.86L101.732 3.743a.493.493 0 0 0-.804.308" fill="#ff99a7"/><path d="M130.387 432.565c13.953 2.827 27.632-5.588 37.03-15.564 1.856-1.972 6.407-9.065 2.378-11.13-3.36-1.722-11.354 3.456-14.866 5.948-5.907 4.193-16.908 18.908-13.605 26.835 6.218 14.921 38.68-3.609 35.34-15.294-.949-3.317-6.894.215-7.69.763-5.439 3.738-8.38 6.18-11.8 11.852-4.643 7.701 4.902 13.97 11.17 12.883 6.65-1.152 8.212-2.256 13.524-4.839" stroke="#55debf" stroke-width=".8"/></g></svg>